<?xml version="1.0" encoding="UTF-8"?>
<svg width="601px" height="598px" viewBox="0 0 601 598" version="1.1" xmlns="http://www.w3.org/2000/svg" xmlns:xlink="http://www.w3.org/1999/xlink">
    <title>Ammit</title>
    <g id="Page-1" stroke="none" stroke-width="1" fill="none" fill-rule="evenodd">
        <g id="Ammit">
            <g id="dots" fill="#FFD098">
                <rect id="Rectangle" x="600" y="0" width="1" height="1"></rect>
                <rect id="Rectangle" x="0" y="597" width="1" height="1"></rect>
            </g>
            <path d="M587.7,294.124966 C589.950317,296.750336 589.703435,300.445406 587.771309,304.712491 L587.515562,305.260294 C587.294915,305.719322 587.055587,306.184584 586.798554,306.655481 L586.48168,307.223224 C586.373265,307.413348 586.262079,307.604334 586.148186,307.796146 L585.798447,308.374017 C585.738824,308.470729 585.67854,308.567637 585.617603,308.664737 L585.2442,309.249601 L585.2442,309.249601 L584.85549,309.838839 C584.789451,309.937397 584.722789,310.036127 584.655513,310.135026 L584.244548,310.730393 C584.105144,310.929495 583.963345,311.129229 583.819215,311.329559 L583.379889,311.932294 C583.305523,312.033034 583.230589,312.133914 583.155096,312.234927 L582.695485,312.842584 L582.695485,312.842584 L582.22282,313.453233 L582.22282,313.453233 L581.737476,314.066646 L581.737476,314.066646 L581.239829,314.682592 L581.239829,314.682592 L580.730254,315.300842 L580.730254,315.300842 L580.209126,315.921164 L580.209126,315.921164 L579.676821,316.54333 C579.587193,316.647165 579.497114,316.751067 579.406594,316.855032 L578.58018,317.792269 C578.487077,317.896565 578.393555,318.000909 578.299621,318.105296 L577.731152,318.7321 L577.731152,318.7321 L577.153195,319.359711 L577.153195,319.359711 L576.566125,319.9879 L576.566125,319.9879 L575.970318,320.616436 L575.970318,320.616436 C565.20263,327.502699 551.76045,326.354285 539.47202,306.434357 L539.1,305.824966 C538.467635,304.778294 537.838441,303.755396 537.212365,302.75567 L538.895253,302.134551 L538.895253,302.134551 L540.041261,301.720417 L540.041261,301.720417 L541.204775,301.306976 L541.204775,301.306976 L542.384285,300.894859 L542.384285,300.894859 L543.578284,300.484699 L543.578284,300.484699 L544.785261,300.077127 L544.785261,300.077127 L546.003707,299.672774 L546.003707,299.672774 L547.232115,299.272272 L547.232115,299.272272 L548.468975,298.876254 L548.468975,298.876254 L549.712777,298.48535 L549.712777,298.48535 L551.588198,297.909965 L551.588198,297.909965 L552.842757,297.534611 L552.842757,297.534611 L554.098976,297.166583 L554.098976,297.166583 L555.355349,296.806511 L555.355349,296.806511 L556.610365,296.455028 C556.819338,296.397199 557.028191,296.339753 557.236893,296.282705 L558.487046,295.94529 L558.487046,295.94529 L559.73207,295.618042 L559.73207,295.618042 L560.970456,295.301594 L560.970456,295.301594 L562.200696,294.996578 L562.200696,294.996578 L563.42128,294.703624 C564.028906,294.560268 564.632346,294.421672 565.230751,294.288193 L566.420595,294.028159 L566.420595,294.028159 L567.595501,293.7824 C577.319963,291.795632 585.331318,291.361504 587.7,294.124966 Z" id="Path" stroke="#FFF1DF" stroke-width="2.7" stroke-linejoin="round"></path>
        </g>
    </g>
</svg>