<?xml version="1.0" encoding="UTF-8"?>
<svg width="601px" height="598px" viewBox="0 0 601 598" version="1.1" xmlns="http://www.w3.org/2000/svg" xmlns:xlink="http://www.w3.org/1999/xlink">
    <title>Cerberus</title>
    <g id="Page-1" stroke="none" stroke-width="1" fill="none" fill-rule="evenodd">
        <g id="Cerberus">
            <g id="dots" fill="#FFD098">
                <rect id="Rectangle" x="600" y="0" width="1" height="1"></rect>
                <rect id="Rectangle" x="0" y="597" width="1" height="1"></rect>
            </g>
            <path d="M99.9,231.124966 C113.695682,231.124966 118.937053,240.685667 121.832329,254.586522 L122.040082,255.611327 L122.040082,255.611327 L122.240001,256.65117 L122.240001,256.65117 L122.432627,257.705595 L122.432627,257.705595 L122.618501,258.774147 L122.618501,258.774147 L122.798162,259.856374 L122.798162,259.856374 L122.972152,260.951819 L122.972152,260.951819 L123.141011,262.060028 L123.141011,262.060028 L123.385861,263.745282 C123.41256,263.934014 123.439102,264.123231 123.465497,264.312923 C114.871721,276.741569 104.238322,282.537621 90.9,276.124966 C77.6027411,269.732053 72.806304,259.633654 72.7535027,248.18317 C78.6319726,237.454627 88.1193087,231.124966 99.9,231.124966 Z" id="Path" stroke="#FFF1DF" stroke-width="2.7" stroke-linejoin="round"></path>
        </g>
    </g>
</svg>