<?xml version="1.0" encoding="UTF-8"?>
<svg width="601px" height="598px" viewBox="0 0 601 598" version="1.1" xmlns="http://www.w3.org/2000/svg" xmlns:xlink="http://www.w3.org/1999/xlink">
    <title>Chamrosh</title>
    <g id="Page-1" stroke="none" stroke-width="1" fill="none" fill-rule="evenodd">
        <g id="Chamrosh">
            <path d="M145.945295,337.778645 L146.006716,336.650866 L145.8,336.424966 C154.723703,346.313394 167.26677,353.810456 181.056377,359.747507 L182.512416,360.366734 C183.486041,360.775759 184.465395,361.177244 185.449658,361.571479 L186.929631,362.157428 C187.671356,362.447719 188.415611,362.734012 189.162051,363.016427 L190.657741,363.576126 C190.907474,363.66856 191.157424,363.760571 191.407579,363.852166 L192.910854,364.396761 L194.418417,364.931556 C194.670001,365.019883 194.921737,365.107812 195.173614,365.195346 L196.686456,365.715845 C196.938843,365.801817 197.191344,365.887403 197.443947,365.972608 L198.960684,366.479297 L200.479249,366.977047 C200.732461,367.059273 200.985724,367.141135 201.239024,367.222638 L202.759178,367.707386 C203.012578,367.787472 203.26599,367.867207 203.519402,367.946597 L205.03976,368.418827 L206.559487,368.882981 C206.812688,368.959678 207.065837,369.036049 207.318921,369.112096 C206.255294,372.164677 205.247167,375.36683 204.3,378.724966 C203.322669,382.190048 202.35411,386.102457 201.433097,390.366756 C203.128532,390.287186 174.353196,394.559925 154.557882,374.764611 C149.757882,369.964611 146.838588,358.38473 145.8,340.024966 C145.853292,339.27888 145.901675,338.529988 145.945295,337.778645 Z" id="Path" stroke="#FFF1DF" stroke-width="2.7" stroke-linejoin="round"></path>
        </g>
    </g>
</svg>