<?xml version="1.0" encoding="UTF-8"?>
<svg width="601px" height="598px" viewBox="0 0 601 598" version="1.1" xmlns="http://www.w3.org/2000/svg" xmlns:xlink="http://www.w3.org/1999/xlink">
    <title>Cockatrice</title>
    <g id="Page-1" stroke="none" stroke-width="1" fill="none" fill-rule="evenodd">
        <g id="Cockatrice">
            <path d="M160.038438,176.191353 L163.764529,176.375488 L163.764529,176.375488 L165.803296,176.487399 L165.803296,176.487399 L167.024674,176.564183 L167.024674,176.564183 L168.243264,176.650985 L168.243264,176.650985 L169.457941,176.750089 L169.457941,176.750089 L170.264997,176.82412 L170.264997,176.82412 L171.06948,176.905311 C171.203328,176.919476 171.337054,176.933969 171.470653,176.948802 L172.270652,177.041999 C172.536769,177.074502 172.802319,177.108481 173.067246,177.144047 L173.8601,177.255621 C174.123724,177.294476 174.38667,177.335031 174.648881,177.3774 L175.433257,177.510058 C184.296617,179.077731 192.24684,182.872006 197.1,193.324966 C197.382395,193.933201 197.649482,194.545671 197.901916,195.162108 C188.889272,199.364191 178.619878,202.324966 166.5,202.324966 C159.44499,202.324966 152.940997,201.000356 147.188569,198.735877 C148.672448,192.185743 150.027856,185.662075 151.278428,179.353037 L152.016379,175.594875 L152.016379,175.594875 C154.624991,175.893816 157.318027,176.054038 160.038438,176.191353 L160.038438,176.191353 Z" id="Path" stroke="#FFF1DF" stroke-width="2.7" stroke-linejoin="round"></path>
        </g>
    </g>
</svg>