<?xml version="1.0" encoding="UTF-8"?>
<svg width="601px" height="598px" viewBox="0 0 601 598" version="1.1" xmlns="http://www.w3.org/2000/svg" xmlns:xlink="http://www.w3.org/1999/xlink">
    <title>Cyclops</title>
    <g id="Page-1" stroke="none" stroke-width="1" fill="none" fill-rule="evenodd">
        <g id="Cyclops">
            <path d="M406.8,418.324966 C409.333222,418.324966 412.346982,419.293896 415.730117,420.931249 L416.460687,421.292232 L416.460687,421.292232 L417.202322,421.67302 L417.202322,421.67302 L417.954779,422.072956 L417.954779,422.072956 L418.717813,422.491382 C418.973894,422.633866 419.231697,422.779323 419.491183,422.927642 L420.274645,423.381078 L420.274645,423.381078 L421.067955,423.851034 L421.067955,423.851034 L421.870872,424.336853 L421.870872,424.336853 L422.683152,424.837877 L422.683152,424.837877 L423.504551,425.353448 L423.504551,425.353448 L424.753218,426.152647 L424.753218,426.152647 L425.596354,426.701715 L425.596354,426.701715 L426.876486,427.548077 L426.876486,427.548077 L428.174403,428.41978 L428.174403,428.41978 L429.049156,429.013899 L429.049156,429.013899 L430.374892,429.92291 L430.374892,429.92291 L432.166661,431.164763 L432.166661,431.164763 L434.902052,433.0808 L434.902052,433.0808 L439.099561,436.039579 L439.099561,436.039579 L439.109522,436.040693 C432.695574,453.441705 424.474339,470.719653 414.112228,487.628089 C375.95363,453.144418 380.936803,418.324966 406.8,418.324966 Z" id="Path" stroke="#FFF1DF" stroke-width="2.7" stroke-linejoin="round"></path>
        </g>
    </g>
</svg>