<?xml version="1.0" encoding="UTF-8"?>
<svg width="601px" height="598px" viewBox="0 0 601 598" version="1.1" xmlns="http://www.w3.org/2000/svg" xmlns:xlink="http://www.w3.org/1999/xlink">
    <title>Dragon</title>
    <g id="Page-1" stroke="none" stroke-width="1" fill="none" fill-rule="evenodd">
        <g id="Dragon">
            <path d="M519.74281,407.164611 C520.329726,407.59624 520.910693,408.029568 521.485444,408.464458 L522.62658,409.336278 C535.086157,418.948309 544.450808,429.271841 547.869774,438.844946 C556.821739,463.910449 539.654756,488.58021 520.773854,501.045345 C521.767672,495.407534 518.522539,489.583192 512.50041,483.630122 L511.856309,483.00301 L511.192072,482.374963 C510.967347,482.165459 510.739329,481.955802 510.508081,481.745994 L509.804713,481.116119 L509.082347,480.485353 C508.594521,480.064549 508.094283,479.643161 507.582138,479.221209 L506.805052,478.58786 C506.674071,478.482232 506.542361,478.37657 506.40993,478.270873 L505.606764,477.636284 L504.786684,477.000885 C504.648616,476.894919 504.509858,476.78892 504.37042,476.682888 L503.52568,476.046305 L502.664974,475.40895 C502.520214,475.302661 502.374804,475.196341 502.228753,475.089989 L501.344808,474.451506 L500.445844,473.81229 L499.53224,473.172355 L498.135213,472.211137 L497.186667,471.569471 L496.224807,470.927139 L495.250012,470.284155 L494.757882,469.962423 C505.7594,448.503794 513.773384,428.732108 518.799833,410.647366 L519.74281,407.164611 Z" id="Path" stroke="#FFF1DF" stroke-width="2.7" stroke-linejoin="round"></path>
        </g>
    </g>
</svg>