<?xml version="1.0" encoding="UTF-8"?>
<svg width="601px" height="598px" viewBox="0 0 601 598" version="1.1" xmlns="http://www.w3.org/2000/svg" xmlns:xlink="http://www.w3.org/1999/xlink">
    <title>Gorgon</title>
    <g id="Page-1" stroke="none" stroke-width="1" fill="none" fill-rule="evenodd">
        <g id="Gorgon">
            <path d="M340.815033,125.878254 C360.0342,125.457316 381.537,127.075966 405,132.124966 C410.676877,133.346573 416.537354,134.987016 422.52371,136.982621 L423.950564,140.955062 L423.950564,140.955062 L425.693251,145.869107 L425.693251,145.869107 L426.374139,147.812227 L426.374139,147.812227 L427.775439,151.858776 L427.775439,151.858776 L428.735923,154.67301 L428.735923,154.67301 L429.468514,156.843704 L429.468514,156.843704 L430.459833,159.816678 L430.459833,159.816678 L431.465735,162.878114 L431.465735,162.878114 L432.228402,165.231262 L432.228402,165.231262 L432.997096,167.63256 L432.997096,167.63256 L433.512447,169.259837 L433.512447,169.259837 L434.289116,171.739857 L434.289116,171.739857 L434.80892,173.418975 L434.80892,173.418975 L435.330022,175.118473 L435.330022,175.118473 L435.852145,176.838147 L435.852145,176.838147 L436.375014,178.577791 L436.375014,178.577791 L437.16011,181.224257 L437.16011,181.224257 L437.683634,183.012935 L437.683634,183.012935 L438.468418,185.731994 L438.468418,185.731994 L439.251773,188.49369 L439.251773,188.49369 L439.772754,190.358168 L439.772754,190.358168 L440.292409,192.241084 L440.292409,192.241084 L440.810462,194.142236 L440.810462,194.142236 L441.326636,196.061419 L441.326636,196.061419 L441.840655,197.998428 L441.840655,197.998428 L442.352243,199.953059 L442.352243,199.953059 L443.114464,202.917601 C443.198782,203.249146 443.28297,203.581404 443.367022,203.914371 L442.144242,203.781678 L442.144242,203.781678 L440.287459,203.588824 L440.287459,203.588824 L431.270201,202.705371 L431.270201,202.705371 L429.263917,202.501196 L429.263917,202.501196 L427.232032,202.285279 L427.232032,202.285279 L425.174777,202.054696 L425.174777,202.054696 L423.789295,201.891383 L423.789295,201.891383 L422.392712,201.719387 C422.159027,201.689949 421.924882,201.660113 421.690279,201.629861 L420.277172,201.443215 L420.277172,201.443215 L418.853137,201.24572 L418.853137,201.24572 L417.418243,201.03651 C416.698093,200.928831 415.973896,200.816435 415.245692,200.698833 L413.783953,200.456546 C403.759048,198.751513 392.990525,196.013587 381.577878,190.999049 C379.576994,160.551876 361.738798,140.053313 340.788056,125.875514 L340.815033,125.878254 Z" id="Path" stroke="#FFF1DF" stroke-width="2.7" stroke-linejoin="round"></path>
        </g>
    </g>
</svg>