<?xml version="1.0" encoding="UTF-8"?>
<svg width="601px" height="598px" viewBox="0 0 601 598" version="1.1" xmlns="http://www.w3.org/2000/svg" xmlns:xlink="http://www.w3.org/1999/xlink">
    <title>Griffon</title>
    <g id="Page-1" stroke="none" stroke-width="1" fill="none" fill-rule="evenodd">
        <g id="Griffon">
            <path d="M198.848767,251.783224 L198.272259,251.986181 C173.86011,260.399986 149.4,254.578966 149.4,240.124966 C149.4,226.489146 167.327674,213.707025 184.075512,205.012181 L185.39491,204.334296 C185.614285,204.22275 185.833369,204.111927 186.052118,204.001833 L187.360246,203.350086 C187.577481,203.242941 187.794295,203.13654 188.010643,203.030891 L189.302798,202.406077 L189.302798,202.406077 L190.581694,201.799661 C191.00555,201.600628 191.426849,201.40472 191.845241,201.211996 L193.091349,200.643435 L193.091349,200.643435 L194.31793,200.094333 L194.31793,200.094333 L195.522894,199.565042 L195.522894,199.565042 L196.704152,199.055917 C196.898936,198.972763 197.092646,198.890464 197.285238,198.809027 L198.427019,198.330813 C198.614963,198.252855 198.801702,198.175774 198.987191,198.099577 C202.440782,208.534444 202.135175,219.946778 201.06134,231.105516 L200.910427,232.625474 L200.910427,232.625474 L200.751676,234.141595 L200.751676,234.141595 L200.586772,235.653185 L200.586772,235.653185 L200.417401,237.15955 L200.417401,237.15955 L199.645137,243.854936 L199.645137,243.854936 L199.481321,245.320165 L199.481321,245.320165 L199.323993,246.77566 L199.323993,246.77566 L199.174838,248.220727 L199.174838,248.220727 L199.035541,249.654674 C198.968638,250.368751 198.906064,251.078398 198.848767,251.783224 Z" id="Path" stroke="#FFF1DF" stroke-width="2.7" stroke-linejoin="round"></path>
        </g>
    </g>
</svg>