<?xml version="1.0" encoding="UTF-8"?>
<svg width="601px" height="598px" viewBox="0 0 601 598" version="1.1" xmlns="http://www.w3.org/2000/svg" xmlns:xlink="http://www.w3.org/1999/xlink">
    <title>Harpy</title>
    <g id="Page-1" stroke="none" stroke-width="1" fill="none" fill-rule="evenodd">
        <g id="Harpy">
            <path d="M221.383518,340.440345 L221.731827,340.719325 L221.731827,340.719325 L222.440049,341.273875 C223.275358,341.918062 224.142407,342.552173 225.041833,343.172883 L225.820714,343.701561 C234.738234,349.6543 246.728375,354.252891 262.376737,354.45029 C261.135294,362.564785 254.143227,370.091007 245.265505,376.09164 L244.41443,376.658486 C243.557902,377.22066 242.685382,377.768727 241.800211,378.301876 L237.248172,377.148632 L237.248172,377.148632 L231.328162,375.651338 L231.328162,375.651338 L227.671931,374.716775 C227.261852,374.611248 226.85056,374.505135 226.43812,374.398416 L223.950197,373.75063 C223.116634,373.532153 222.278987,373.311067 221.437767,373.087194 L218.903901,372.407029 C215.088558,371.373696 211.211229,370.280272 207.318542,369.110404 C211.290759,357.700085 216.031527,348.355458 221.235157,340.6575 L221.383518,340.440345 Z" id="Path" stroke="#FFF1DF" stroke-width="2.7" fill-opacity="0" fill="#FF0000" stroke-linejoin="round"></path>
        </g>
    </g>
</svg>