<?xml version="1.0" encoding="UTF-8"?>
<svg width="601px" height="598px" viewBox="0 0 601 598" version="1.1" xmlns="http://www.w3.org/2000/svg" xmlns:xlink="http://www.w3.org/1999/xlink">
    <title>Hippocamp</title>
    <g id="Page-1" stroke="none" stroke-width="1" fill="none" fill-rule="evenodd">
        <g id="Hippocamp">
           <path d="M138.669338,463.893469 C150.708492,471.939387 164.677451,478.489952 180.9,483.124966 C182.866132,483.686718 185.387426,483.878363 188.36256,483.778929 L189.148911,483.746439 C189.281663,483.739941 189.415256,483.732906 189.549683,483.725339 L190.366169,483.673625 C190.503894,483.663962 190.642435,483.653781 190.781784,483.643089 L191.627506,483.572852 C191.770054,483.560141 191.913393,483.546931 192.057514,483.53323 L192.931574,483.445172 L193.824026,483.345623 L194.734469,483.234895 L195.662505,483.113299 L196.607733,482.981148 L197.569754,482.838752 L198.548169,482.686425 L199.542576,482.524477 C199.433857,482.544853 199.11006,482.598031 198.571183,482.684014 C201.970122,498.299212 208.253704,511.501993 218.7,519.124966 C223.467154,522.6037 228.741577,525.970785 234.428845,529.122896 C206.398927,540.314769 173.262212,540.951914 149.4,515.524966 C142.038594,507.680845 135.831894,484.210174 138.669338,463.893469 Z" id="Path" stroke="#FFF1DF" stroke-width="2.7" stroke-linejoin="round"></path>
        </g>
    </g>
</svg>