<?xml version="1.0" encoding="UTF-8"?>
<svg width="601px" height="598px" viewBox="0 0 601 598" version="1.1" xmlns="http://www.w3.org/2000/svg" xmlns:xlink="http://www.w3.org/1999/xlink">
    <title>Hydra</title>
    <g id="Page-1" stroke="none" stroke-width="1" fill="none" fill-rule="evenodd">
        <g id="Hydra">
            <path d="M414,96.1249662 C392.4,62.8249662 406.8,34.9249662 441,39.4249662 C441.905023,39.5440481 442.919078,39.7765742 444.034144,40.1203095 L444.65233,40.318817 L444.65233,40.318817 L445.290263,40.539302 C445.830021,40.7321744 446.390045,40.947856 446.969584,41.1861369 L447.674349,41.4829082 C448.150372,41.6879696 448.638691,41.9074409 449.138921,42.1412145 L449.898149,42.5025883 C450.02616,42.5646006 450.154903,42.6275034 450.284373,42.6912951 L451.069857,43.0846982 L451.069857,43.0846982 L451.872483,43.4993533 C452.413217,43.7828562 452.965186,44.0804733 453.528004,44.3920974 L454.380321,44.8700252 C454.523714,44.9514262 454.667773,45.0336992 454.812492,45.1168427 L455.688677,45.6261348 L455.688677,45.6261348 L456.580414,46.1562357 C456.880219,46.3363952 457.182568,46.5200094 457.487412,46.7070648 L458.409382,47.2785415 C458.564275,47.3755038 458.719781,47.473323 458.875891,47.5719975 L459.819778,48.1742945 L459.819778,48.1742945 L460.777913,48.7970377 L460.777913,48.7970377 L461.750008,49.4401463 L461.750008,49.4401463 L462.735774,50.1035399 L462.735774,50.1035399 L462.742642,50.1118157 C478.769758,64.1085343 481.622218,79.2969301 481.430812,88.7880646 L481.409199,89.5350706 C481.404578,89.6575023 481.399464,89.7788886 481.393882,89.899213 L481.354948,90.6082868 L481.354948,90.6082868 L481.305909,91.2910929 C481.296958,91.4026613 481.287634,91.5131027 481.277961,91.6224005 L481.215925,92.2643351 L481.215925,92.2643351 L481.146665,92.8780424 C481.134584,92.9779311 481.122249,93.0766111 481.109686,93.1740659 L481.031752,93.7439625 L481.031752,93.7439625 L480.949475,94.2836722 L480.949475,94.2836722 L480.864009,94.7924112 L480.864009,94.7924112 L480.776506,95.2693958 C480.761817,95.3462035 480.74709,95.4216554 480.732351,95.4957352 L480.6,96.1249662 L480.6,96.1249662 L480.544375,96.3690309 L480.544375,96.3690309 L480.423274,96.8632731 L480.423274,96.8632731 L480.288825,97.3650537 L480.288825,97.3650537 L480.140768,97.8736383 C480.114943,97.9589286 480.088541,98.0444718 480.061555,98.1302526 L479.8926,98.6476662 C479.36448,100.207726 478.643904,101.834854 477.699379,103.439821 L477.3762,103.973866 C473.508,110.191966 466.2,115.924966 453.6,115.924966 C445.34787,115.924966 436.781219,114.081989 429.253147,111.77262 C423.541233,107.666903 418.413631,102.929314 414,96.1249662 Z" id="Path" stroke="#FFF1DF" stroke-width="2.7" stroke-linejoin="round"></path>
        </g>
    </g>
</svg>