<?xml version="1.0" encoding="UTF-8"?>
<svg width="601px" height="598px" viewBox="0 0 601 598" version="1.1" xmlns="http://www.w3.org/2000/svg" xmlns:xlink="http://www.w3.org/1999/xlink">
    <title>Ichthyocentaur</title>
    <g id="Page-1" stroke="none" stroke-width="1" fill="none" fill-rule="evenodd">
        <g id="Ichthyocentaur">
           <path d="M286.04746,465.832526 L286.2,466.024966 C298.689588,482.157351 270.882011,514.566546 234.428845,529.122896 C228.741577,525.970785 223.467154,522.6037 218.7,519.124966 C208.253704,511.501993 201.970122,498.299212 198.571183,482.684014 C200.473454,482.38049 202.464804,482.023396 204.532352,481.622781 L206.322896,481.268973 C206.62433,481.208306 206.927244,481.146811 207.2316,481.084514 L209.074746,480.701368 C209.694697,480.570607 210.320117,480.43688 210.950706,480.30042 L212.857677,479.883076 C213.17799,479.812231 213.49952,479.740761 213.822229,479.668696 L216.757445,479.004828 L216.757445,479.004828 L218.746635,478.546736 L218.746635,478.546736 L221.774483,477.839841 L221.774483,477.839841 L229.01354,476.122833 L229.01354,476.122833 L235.36555,474.612358 L235.36555,474.612358 L238.57625,473.856361 L238.57625,473.856361 L241.801968,473.106184 L241.801968,473.106184 L243.957785,472.611644 L243.957785,472.611644 L246.11577,472.123207 L246.11577,472.123207 L248.27412,471.642277 L248.27412,471.642277 L250.431033,471.170262 L250.431033,471.170262 L252.584705,470.708568 C252.94328,470.632557 253.301645,470.557035 253.659763,470.482031 L255.805194,470.038454 L255.805194,470.038454 L257.942878,469.608713 C267.897856,467.637727 277.540868,466.164646 286.04746,465.832526 Z" id="Path" stroke="#FFF1DF" stroke-width="2.7" stroke-linejoin="round"></path>
        </g>
    </g>
</svg>