<?xml version="1.0" encoding="UTF-8"?>
<svg width="601px" height="598px" viewBox="0 0 601 598" version="1.1" xmlns="http://www.w3.org/2000/svg" xmlns:xlink="http://www.w3.org/1999/xlink">
    <title>Kaliya</title>
    <g id="Page-1" stroke="none" stroke-width="1" fill="none" fill-rule="evenodd">
        <g id="Kaliya">
            <path d="M154.475558,150.506036 L156.589812,151.383302 L156.589812,151.383302 L153.582522,167.416637 L153.582522,167.416637 L152.701419,172.047893 L152.701419,172.047893 L152.246888,174.40724 C152.170333,174.802696 152.093374,175.199235 152.016005,175.596807 C147.125752,175.039572 142.530098,174.000286 138.6,171.724966 C134.089488,169.113617 130.643488,166.502268 127.898627,164.006538 L127.277479,163.432705 L127.277479,163.432705 L126.68023,162.863293 L126.68023,162.863293 L126.10589,162.298617 C126.01202,162.204917 125.919064,162.111427 125.827,162.018154 L125.28516,161.461175 C125.196583,161.368797 125.108857,161.276649 125.021962,161.184738 L124.51039,160.636165 C124.426734,160.545228 124.343867,160.45454 124.261768,160.364109 L123.778232,159.824655 L123.778232,159.824655 L123.312145,159.291673 L123.312145,159.291673 L122.862515,158.76548 L122.862515,158.76548 L122.428351,158.246391 L122.428351,158.246391 C124.027324,154.183892 126.957941,150.461884 131.4,147.424966 C134.636871,145.212003 138.908105,145.366843 143.870524,146.695383 L144.601626,146.898043 L144.601626,146.898043 L145.342357,147.116629 C145.590845,147.192053 145.840899,147.269993 146.092478,147.350309 L146.85175,147.598251 L146.85175,147.598251 L147.619935,147.859624 L147.619935,147.859624 L148.396793,148.133596 C148.526978,148.180262 148.657515,148.227418 148.788399,148.275047 L149.577818,148.566358 L149.577818,148.566358 L150.375313,148.868189 L150.375313,148.868189 L151.586175,149.338841 L151.586175,149.338841 L152.813862,149.828486 L152.813862,149.828486 L154.475558,150.506036 L154.475558,150.506036 Z" id="Path" stroke="#FFF1DF" stroke-width="2.7" stroke-linejoin="round"></path>
        </g>
    </g>
</svg>