<?xml version="1.0" encoding="UTF-8"?>
<svg width="601px" height="598px" viewBox="0 0 601 598" version="1.1" xmlns="http://www.w3.org/2000/svg" xmlns:xlink="http://www.w3.org/1999/xlink">
    <title>Lamassu</title>
    <g id="Page-1" stroke="none" stroke-width="1" fill="none" fill-rule="evenodd">
        <g id="Lamassu">
            <path d="M241.1998,319.51361 L241.396994,319.367654 L242.37245,320.2091 L242.37245,320.2091 L243.338087,321.052715 C243.498159,321.193521 243.657785,321.334435 243.816947,321.475464 L244.766197,322.323104 C244.923427,322.464632 245.080157,322.606294 245.236366,322.748097 L246.167241,323.600688 L246.167241,323.600688 L247.08476,324.457093 C247.388275,324.743243 247.689417,325.030097 247.988039,325.317724 L248.876194,326.182993 L248.876194,326.182993 L249.748342,327.053311 C255.795287,333.164168 260.600684,339.676369 262.8,347.224966 C263.511769,349.667934 263.638738,352.084122 263.276737,354.45029 C249.235701,354.273167 238.139972,350.552557 229.566498,345.489711 L228.744667,344.995642 C227.252359,344.082437 225.839017,343.129218 224.502277,342.148276 L223.780729,341.610542 C223.066749,341.070206 222.375433,340.522288 221.706396,339.968781 C227.592014,331.418454 234.051756,324.936763 240.649932,319.928067 L241.1998,319.51361 Z" id="Path" stroke="#FFF1DF" stroke-width="2.7" fill-opacity="0" fill="#FF0000" stroke-linejoin="round"></path>
        </g>
    </g>
</svg>