<?xml version="1.0" encoding="UTF-8"?>
<svg width="122px" height="46px" viewBox="0 0 122 46" version="1.1" xmlns="http://www.w3.org/2000/svg" xmlns:xlink="http://www.w3.org/1999/xlink">
    <title>Longma</title>
    <g id="Page-1" stroke="none" stroke-width="1" fill="none" fill-rule="evenodd" stroke-linejoin="round">
        <g id="Artboard" transform="translate(-184.000000, -546.000000)" stroke="#979797" stroke-width="2.7">
            <path d="M303.120239,563.08318 L303.790479,563.143778 L301.716431,564.518271 L301.716431,564.518271 L300.296628,565.451323 L300.296628,565.451323 L298.870774,566.38108 L298.870774,566.38108 L297.43874,567.306596 L297.43874,567.306596 L296.000399,568.226923 L296.000399,568.226923 L294.555623,569.141114 L294.555623,569.141114 L293.104283,570.048223 L293.104283,570.048223 L291.646252,570.947303 L291.646252,570.947303 L290.181401,571.837407 L290.181401,571.837407 L288.709602,572.717589 C288.463716,572.863406 288.217536,573.00877 287.971057,573.153662 L286.488597,574.017184 C267.417324,585.022216 246.550549,592.991163 222.669922,588.918725 L222.266079,588.848172 L222.266079,588.848172 L221.430925,588.692231 L221.430925,588.692231 L220.55962,588.516486 C220.411421,588.485543 220.261739,588.453774 220.110586,588.421179 L219.186108,588.215677 C218.872127,588.143866 218.552355,588.068742 218.226887,587.990303 L217.233485,587.745029 L217.233485,587.745029 L216.206465,587.479827 L216.206465,587.479827 L215.146392,587.194671 L215.146392,587.194671 L214.053828,586.889533 L214.053828,586.889533 L212.929336,586.564385 L212.929336,586.564385 L211.77348,586.2192 C211.578255,586.159997 211.381747,586.099959 211.183967,586.039084 L209.982121,585.663792 C209.779301,585.599568 209.575233,585.534507 209.369929,585.468607 L208.123361,585.063145 L208.123361,585.063145 L206.847681,584.637536 C206.632673,584.564921 206.416476,584.491465 206.199101,584.417167 L204.880811,583.961286 L204.880811,583.961286 L203.534818,583.485188 L203.534818,583.485188 L202.161686,582.988847 C201.930601,582.904435 201.698408,582.819179 201.465119,582.733077 C183.412782,572.899596 181.260163,563.32346 195,554 C205.513265,546.865999 221.790728,547.214515 240.17624,550.245266 L241.879246,550.532506 C242.164042,550.581602 242.449311,550.631298 242.735039,550.681577 L244.454808,550.990098 L244.454808,550.990098 L246.184954,551.311759 L246.184954,551.311759 L247.924838,551.645719 L247.924838,551.645719 L249.673822,551.991139 C249.966042,552.049618 250.258614,552.108539 250.551526,552.167885 L252.31296,552.528924 L252.31296,552.528924 L254.968976,553.087777 L254.968976,553.087777 L257.639714,553.664865 L257.639714,553.664865 L260.323016,554.257357 L260.323016,554.257357 L263.916571,555.066414 L263.916571,555.066414 L266.620804,555.683836 L266.620804,555.683836 L275.718865,557.782273 C282.206072,559.276542 288.677338,560.74051 295,562 C296.312515,562.261456 297.841457,562.494326 299.533712,562.701659 L300.685495,562.836131 L300.685495,562.836131 L301.882169,562.963238 C302.288154,563.004401 302.701038,563.044371 303.120239,563.08318 Z" id="Longma"></path>
        </g>
    </g>
</svg>