<?xml version="1.0" encoding="UTF-8"?>
<svg width="40px" height="33px" viewBox="0 0 40 33" version="1.1" xmlns="http://www.w3.org/2000/svg" xmlns:xlink="http://www.w3.org/1999/xlink">
    <title>m</title>
    <g id="Page-1" stroke="none" stroke-width="1" fill="none" fill-rule="evenodd">
        <g id="Artboard" transform="translate(-34.000000, -34.000000)" fill="#C6C8C7" fill-rule="nonzero">
            <path d="M53.7597656,66.1132812 C53.9550781,66.1132812 54.1113281,66.0253906 54.2285156,65.8496094 C55.3808594,63.5839844 56.8164062,61.8359375 58.5351562,60.6054687 C58.671875,60.46875 58.7402344,60.3369141 58.7402344,60.2099609 C58.7402344,60.0830078 58.671875,59.9511719 58.5351562,59.8144531 C57.34375,59.4042969 56.7480469,57.5976562 56.7480469,54.3945312 L56.7480469,54.3945312 L56.7773437,42.03125 C56.7773437,41.7382812 56.9238281,41.4697266 57.2167969,41.2255859 C57.5097656,40.9814453 58.2910156,40.3710937 59.5605469,39.3945312 C59.7949219,39.2578125 60.0292969,39.2675781 60.2636719,39.4238281 L60.2636719,39.4238281 L62.7246094,41.4746094 C63.0371094,41.6894531 63.1933594,42.0898437 63.1933594,42.6757812 L63.1933594,42.6757812 L63.1640625,58.0273437 C63.1640625,59.765625 63.6083984,61.2597656 64.4970703,62.5097656 C65.3857422,63.7597656 66.71875,64.8144531 68.4960937,65.6738281 C69.0234375,65.9667969 69.4628906,65.8398437 69.8144531,65.2929687 C70.3417969,64.375 70.8691406,63.4521484 71.3964844,62.5244141 C71.9238281,61.5966797 72.4804687,60.6738281 73.0664062,59.7558594 C73.3398437,59.2871094 73.3349609,58.9501953 73.0517578,58.7451172 C72.7685547,58.5400391 72.5292969,58.6230469 72.3339844,58.9941406 C71.7871094,59.9316406 71.0839844,60.1464844 70.2246094,59.6386719 C69.4824219,59.1894531 69.1113281,57.96875 69.1113281,55.9765625 L69.1113281,55.9765625 L69.1113281,43.2324219 C69.1113281,42.1191406 69.3066406,41.3232422 69.6972656,40.8447266 C70.0878906,40.3662109 70.5371094,40.0292969 71.0449219,39.8339844 C71.2597656,39.8144531 71.3671875,39.6386719 71.3671875,39.3066406 C71.3476562,39.1113281 71.1914062,38.984375 70.8984375,38.9257812 C68.90625,38.5742187 67.4902344,38.0371094 66.6503906,37.3144531 C65.8105469,36.5917969 64.8046875,35.6152344 63.6328125,34.3847656 C63.1445312,33.8574219 62.7929687,33.8476562 62.578125,34.3554687 C62.1679687,35.1757812 61.4501953,36.0498047 60.4248047,36.9775391 C59.3994141,37.9052734 58.359375,38.7988281 57.3046875,39.6582031 C57.1875,39.7753906 57.0507812,39.8339844 56.8945312,39.8339844 C56.7382812,39.8339844 56.6210937,39.6972656 56.5429687,39.4238281 C55.9375,37.4316406 54.2285156,35.7421875 51.4160156,34.3554687 C50.8691406,34.0429687 50.4394531,34.1601562 50.1269531,34.7070312 C49.7167969,35.390625 48.9794922,36.2060547 47.9150391,37.1533203 C46.8505859,38.1005859 45.8398437,38.984375 44.8828125,39.8046875 C44.7265625,39.9023437 44.5703125,39.921875 44.4140625,39.8632812 C44.2578125,39.84375 44.1503906,39.7363281 44.0917969,39.5410156 C43.5058594,37.4902344 41.8066406,35.7714844 38.9941406,34.3847656 L38.9941406,34.3847656 L38.9648437,34.3554687 C38.3984375,34.0234375 37.9589844,34.140625 37.6464844,34.7070312 C37.0996094,35.6445312 36.5673828,36.5820312 36.0498047,37.5195312 C35.5322266,38.4570312 34.9902344,39.375 34.4238281,40.2734375 C34.1113281,40.8007812 34.0966797,41.1572266 34.3798828,41.3427734 C34.6630859,41.5283203 34.9121094,41.4160156 35.1269531,41.0058594 C35.6738281,40.0292969 36.3769531,39.8242187 37.2363281,40.390625 C37.9785156,40.8398437 38.3496094,42.0605469 38.3496094,44.0527344 L38.3496094,44.0527344 L38.3496094,54.3945312 C38.3886719,57.578125 37.7539062,59.3847656 36.4453125,59.8144531 C36.3085937,59.9316406 36.2402344,60.0683594 36.2402344,60.2246094 C36.2402344,60.3808594 36.2988281,60.5175781 36.4160156,60.6347656 C38.2519531,61.9042969 39.7363281,63.6425781 40.8691406,65.8496094 C40.9667969,66.0253906 41.1083984,66.1132812 41.2939453,66.1132812 C41.4794922,66.1132812 41.6308594,66.0253906 41.7480469,65.8496094 C42.8808594,63.6230469 44.3066406,61.875 46.0253906,60.6054687 C46.1621094,60.5078125 46.2304687,60.3808594 46.2304687,60.2246094 C46.2304687,60.0683594 46.1621094,59.9316406 46.0253906,59.8144531 C44.8339844,59.3847656 44.2480469,57.578125 44.2675781,54.3945312 L44.2675781,54.3945312 L44.296875,41.9726562 L44.3554687,41.7382812 L44.4726562,41.5625 L46.9335937,39.6875 C47.8710937,38.9453125 48.7988281,39.1796875 49.7167969,40.390625 C50.4589844,41.3867187 50.8300781,42.6074219 50.8300781,44.0527344 L50.8300781,44.0527344 L50.859375,54.3945312 C50.9570312,57.578125 50.3125,59.3847656 48.9257812,59.8144531 C48.7890625,59.9511719 48.7207031,60.0976562 48.7207031,60.2539062 C48.7207031,60.4101562 48.7890625,60.5371094 48.9257812,60.6347656 C50.78125,61.9433594 52.265625,63.6816406 53.3789062,65.8496094 C53.4375,66.0253906 53.5644531,66.1132812 53.7597656,66.1132812 Z" id="m"></path>
        </g>
    </g>
</svg>