<?xml version="1.0" encoding="UTF-8"?>
<svg width="601px" height="598px" viewBox="0 0 601 598" version="1.1" xmlns="http://www.w3.org/2000/svg" xmlns:xlink="http://www.w3.org/1999/xlink">
    <title>Makara</title>
    <g id="Page-1" stroke="none" stroke-width="1" fill="none" fill-rule="evenodd">
        <g id="Makara">
            <path d="M155.7,434.524966 C163.319264,430.207383 175.310435,428.613283 189.084702,429.176363 C192.166006,436.661923 191.807889,443.876068 186.3,448.924966 C180.990638,453.791881 172.092358,455.23301 162.184838,454.224087 L161.207163,454.116982 C161.043706,454.097826 160.879999,454.078019 160.716056,454.057568 L159.729641,453.927146 C159.235101,453.858096 158.738632,453.783313 158.24054,453.702914 L157.242283,453.534662 C157.075577,453.505384 156.908713,453.47549 156.741703,453.444984 L155.737978,453.254653 C155.402879,453.188788 155.067285,453.120513 154.731289,453.049861 L153.722183,452.830814 L153.722183,452.830814 L152.711204,452.597718 C151.530849,452.317658 150.347784,452.009337 149.165908,451.674228 L148.153254,451.380467 C147.984557,451.330425 147.815907,451.279845 147.647316,451.228731 L146.636558,450.915676 C145.290057,450.489821 143.948747,450.030355 142.618445,449.539478 C145.437502,443.231878 149.676483,437.938292 155.7,434.524966 Z" id="Path" stroke="#FFF1DF" stroke-width="2.7" stroke-linejoin="round"></path>
        </g>
    </g>
</svg>