<?xml version="1.0" encoding="UTF-8"?>
<svg width="601px" height="598px" viewBox="0 0 601 598" version="1.1" xmlns="http://www.w3.org/2000/svg" xmlns:xlink="http://www.w3.org/1999/xlink">
    <title>Manticore</title>
    <g id="Page-1" stroke="none" stroke-width="1" fill="none" fill-rule="evenodd">
        <g id="Manticore">
            <path d="M405.657882,244.264611 C406.280689,247.586247 404.847721,250.987665 402.054335,254.417548 L401.602071,254.959338 C400.443652,256.314366 399.078959,257.673409 397.550762,259.03331 L396.930864,259.577308 L396.930864,259.577308 L396.294134,260.121354 L396.294134,260.121354 L395.64118,260.665401 C395.531036,260.756073 395.420242,260.846743 395.308809,260.937411 L394.63266,261.481377 L394.63266,261.481377 L393.941807,262.025232 L393.941807,262.025232 L393.23686,262.568931 L393.23686,262.568931 L392.518426,263.112431 L392.518426,263.112431 L391.787113,263.655685 L391.787113,263.655685 L390.26855,263.794653 L390.26855,263.794653 L388.762306,263.924101 L388.762306,263.924101 L387.269239,264.04357 L387.269239,264.04357 L385.790204,264.152601 L385.790204,264.152601 L384.326059,264.250732 L384.326059,264.250732 L382.877662,264.337505 L382.877662,264.337505 L381.445869,264.412459 C380.971467,264.435423 380.499975,264.45634 380.031537,264.475134 L378.635523,264.525071 C371.471585,264.749375 365.075462,264.445182 359.979085,263.32702 C361.450666,261.631089 362.861711,259.851305 364.208728,257.982763 L364.310428,257.838363 L364.310428,257.838363 L364.556642,257.495782 L364.556642,257.495782 L364.917124,256.98052 C365.064248,256.77226 365.209497,256.561609 365.353952,256.349857 L365.65886,255.896803 L365.65886,255.896803 C365.978068,255.424405 366.292291,254.945411 366.60251,254.460866 L366.866505,254.043212 C367.255801,253.429049 367.638128,252.804449 368.013909,252.170772 L368.288205,251.704619 L368.288205,251.704619 L368.8793,250.674728 L368.8793,250.674728 L369.361867,249.80687 C370.01244,249.48424 370.653541,249.159423 371.285246,248.833337 L372.536149,248.179745 C372.742552,248.070622 372.947917,247.961426 373.152247,247.852191 L374.365817,247.196586 L374.365817,247.196586 L375.554668,246.541679 C375.750758,246.432676 375.945823,246.323771 376.139866,246.214997 L377.291891,245.564198 L377.291891,245.564198 L378.419534,244.918178 L378.419534,244.918178 L380.065578,243.961681 L380.065578,243.961681 L382.688988,242.414543 L382.688988,242.414543 L385.641684,240.666994 L385.641684,240.666994 L387.039161,239.850673 L387.039161,239.850673 L387.941911,239.331479 L387.941911,239.331479 L388.821696,238.834206 C398.08408,233.652674 403.450312,232.490905 405.657882,244.264611 Z" id="Path" stroke="#FFF1DF" stroke-width="2.7" stroke-linejoin="round"></path>
        </g>
    </g>
</svg>