<?xml version="1.0" encoding="UTF-8"?>
<svg width="601px" height="598px" viewBox="0 0 601 598" version="1.1" xmlns="http://www.w3.org/2000/svg" xmlns:xlink="http://www.w3.org/1999/xlink">
    <title>Mermaid</title>
    <g id="Page-1" stroke="none" stroke-width="1" fill="none" fill-rule="evenodd">
        <g id="Mermaid">
            <path d="M195.893627,429.616165 C229.799769,432.57334 271.395735,447.170827 286.050367,465.83306 C277.543081,466.16493 267.899547,467.637863 257.944169,469.608764 L255.806402,470.038488 L255.806402,470.038488 L253.66089,470.482049 L253.66089,470.482049 L251.509438,470.938042 L251.509438,470.938042 L249.353848,471.40506 L249.353848,471.40506 L247.195921,471.881698 L247.195921,471.881698 L245.037462,472.366548 L245.037462,472.366548 L242.880273,472.858206 L242.880273,472.858206 L238.576913,473.856316 L238.576913,473.856316 L235.366134,474.612308 L235.366134,474.612308 L222.794938,477.599596 L222.794938,477.599596 L219.75054,478.313519 L219.75054,478.313519 L217.749192,478.777176 L217.749192,478.777176 L215.772548,479.229359 L215.772548,479.229359 L213.822411,479.668663 L213.822411,479.668663 L211.900583,480.093681 L211.900583,480.093681 L210.008866,480.503007 C209.69619,480.569842 209.384843,480.635964 209.074864,480.701345 L207.231695,481.084496 C206.927335,481.146793 206.624418,481.20829 206.32298,481.268957 L204.532416,481.622769 C202.760212,481.966157 201.043991,482.27757 199.391867,482.55068 L198.571183,482.684014 L198.369965,481.740723 C195.091677,466.055542 194.663068,448.029175 195.812304,430.813556 L195.893627,429.616165 Z" id="Path" stroke="#FFF1DF" stroke-width="2.7" stroke-linejoin="round"></path>
        </g>
    </g>
</svg>