<?xml version="1.0" encoding="UTF-8"?>
<svg width="601px" height="598px" viewBox="0 0 601 598" version="1.1" xmlns="http://www.w3.org/2000/svg" xmlns:xlink="http://www.w3.org/1999/xlink">
    <title>Minotaur</title>
    <g id="Page-1" stroke="none" stroke-width="1" fill="none" fill-rule="evenodd">
        <g id="Minotaur">
            <path d="M263.303507,307.622816 C263.632575,313.413742 265.466002,318.331695 268.660889,321.326901 C270.452003,323.00607 273.44024,323.792826 277.321592,323.795556 L277.773386,323.792398 C280.481231,323.753031 283.603384,323.347096 287.041875,322.609521 L288.032824,322.389792 L289.040481,322.152195 C289.209788,322.111116 289.37977,322.069301 289.550416,322.026753 L290.582183,321.762694 C290.755445,321.717228 290.92935,321.671036 291.103888,321.624123 L292.158621,321.33401 L293.228032,321.026754 C293.407462,320.974126 293.587482,320.920792 293.768082,320.866754 L294.858555,320.534123 L295.962436,320.184801 C296.147505,320.1252 296.333112,320.064911 296.519245,320.003938 L297.642285,319.62992 C298.018682,319.502531 298.397103,319.372435 298.777462,319.239663 L299.924269,318.83335 C300.116344,318.764303 300.308883,318.694595 300.501875,318.624229 L301.665175,318.19417 C301.859936,318.121188 302.055128,318.047556 302.250742,317.973277 L303.429392,317.51988 C303.626648,317.443031 303.824303,317.365543 304.022348,317.28742 L305.215206,316.811091 C306.013447,316.488498 306.817579,316.155864 307.626926,315.81343 L308.844772,315.292461 L310.069932,314.756973 L311.301897,314.207149 C311.507764,314.114327 311.713893,314.020915 311.920274,313.926917 L313.161496,313.355926 C313.368842,313.259599 313.576419,313.162693 313.784215,313.065213 L315.033552,312.473463 L316.287664,311.868101 L317.546043,311.249307 L318.808181,310.617262 L320.07357,309.972147 C320.284711,309.863549 320.495967,309.754413 320.707326,309.644745 L321.97664,308.980365 L323.247937,308.303368 C323.459957,308.189494 323.672038,308.075101 323.88417,307.960195 L325.157487,307.264611 C339.185973,322.345971 326.366701,344.309722 282.160889,352.826901 C275.177161,354.172463 268.746425,354.726043 262.837217,354.651795 C263.199595,352.285446 263.072568,349.86956 262.360889,347.426901 C260.161573,339.878304 255.356175,333.366103 249.309231,327.255246 L248.437083,326.384928 L247.548927,325.519659 C247.250306,325.232032 246.949164,324.945178 246.645648,324.659028 L245.728129,323.802623 L244.797255,322.950032 C244.641045,322.808229 244.484316,322.666567 244.327085,322.525039 L243.377835,321.677399 L242.41744,320.832545 L241.446783,319.990066 C241.2842,319.849828 241.121227,319.709672 240.957882,319.569589 C249.325921,313.36661 263.648375,307.493328 263.303507,307.622816 Z" id="Path" stroke="#FFF1DF" stroke-width="2.7" stroke-linejoin="round"></path>
        </g>
    </g>
</svg>