<?xml version="1.0" encoding="UTF-8"?>
<svg width="601px" height="598px" viewBox="0 0 601 598" version="1.1" xmlns="http://www.w3.org/2000/svg" xmlns:xlink="http://www.w3.org/1999/xlink">
    <title>Myrmecoleon</title>
    <g id="Page-1" stroke="none" stroke-width="1" fill="none" fill-rule="evenodd">
        <g id="Myrmecoleon">
            <path d="M312.834704,203.100378 L312.882522,202.924519 L316.056844,203.266362 L316.056844,203.266362 L319.210221,203.59963 L319.210221,203.59963 L322.339339,203.923184 L322.339339,203.923184 L325.440884,204.235882 C325.955327,204.28703 326.468482,204.337678 326.980282,204.387803 L330.034255,204.682076 C331.046454,204.777945 332.052677,204.87153 333.052372,204.962639 L336.031318,205.228351 C338.00349,205.400288 339.947338,205.561564 341.858446,205.710656 L344.7,205.924966 C354.553545,206.641588 365.583968,208.285446 377.060058,210.508683 C375.981794,215.595536 372.601651,220.823682 366.3,225.724966 C342,244.624966 314.699054,224.021026 312.3,214.024966 C311.628265,211.226069 311.737079,207.285023 312.834704,203.100378 Z" id="Path" stroke="#FFF1DF" stroke-width="2.7" stroke-linejoin="round"></path>
        </g>
    </g>
</svg>