<?xml version="1.0" encoding="UTF-8"?>
<svg width="601px" height="598px" viewBox="0 0 601 598" version="1.1" xmlns="http://www.w3.org/2000/svg" xmlns:xlink="http://www.w3.org/1999/xlink">
    <title>Ophiotaurus</title>
    <g id="Page-1" stroke="none" stroke-width="1" fill="none" fill-rule="evenodd">
        <g id="Ophiotaurus">
            <path d="M305.979369,128.95523 L307.18813,128.770141 L307.97472,129.345672 L307.97472,129.345672 L308.751507,129.926755 L308.751507,129.926755 L309.517764,130.513782 C309.644556,130.612137 309.770878,130.710755 309.896717,130.809646 L310.645815,131.406321 C311.017338,131.706355 311.38423,132.008985 311.746081,132.314429 L312.462943,132.929134 C318.615402,138.290235 323.171596,144.54093 324,152.824966 C324.312831,155.953271 324.263206,159.190313 323.916918,162.494097 C309.852336,159.344064 295.721732,159.225984 283.02877,160.42944 L281.542203,160.577017 C280.309077,160.704907 279.090335,160.844854 277.887395,160.995247 L276.451542,161.18063 L276.451542,161.18063 L275.031404,161.375421 C274.796054,161.408636 274.561381,161.442217 274.327397,161.476152 L272.931849,161.683896 L272.931849,161.683896 L271.553376,161.899502 L271.553376,161.899502 L270.192521,162.122351 L270.192521,162.122351 L268.849828,162.351824 C268.62759,162.390587 268.406131,162.4296 268.185463,162.468851 L266.871034,162.707099 L266.871034,162.707099 L265.576127,162.950423 C265.361967,162.991366 265.148642,163.032495 264.936165,163.073796 L263.671563,163.323575 L263.671563,163.323575 L262.427844,163.576883 L262.427844,163.576883 C262.729123,155.820069 262.53765,147.835942 261.855256,139.624538 L263.768701,139.008645 L263.768701,139.008645 L265.080905,138.593508 L265.080905,138.593508 L267.103722,137.965476 L267.103722,137.965476 L268.488406,137.5441 L268.488406,137.5441 L269.90184,137.121265 L269.90184,137.121265 L271.343884,136.697566 L271.343884,136.697566 L272.8144,136.273595 L272.8144,136.273595 L274.31325,135.849945 L274.31325,135.849945 L275.840294,135.427209 L275.840294,135.427209 L277.395394,135.00598 L277.395394,135.00598 L278.978411,134.586852 L278.978411,134.586852 L280.589207,134.170416 L280.589207,134.170416 L282.227642,133.757268 C282.50301,133.688716 282.779524,133.620327 283.057181,133.552111 L284.736815,133.145003 L284.736815,133.145003 L286.443742,132.742665 L286.443742,132.742665 L288.177823,132.345689 C288.469091,132.280006 288.761485,132.214571 289.055002,132.149397 L290.829554,131.761575 C291.12755,131.697492 291.426664,131.633695 291.726891,131.570194 L293.541602,131.192862 C297.50234,130.383475 301.650379,129.628549 305.979369,128.95523 L305.979369,128.95523 Z" id="Path" stroke="#FFF1DF" stroke-width="2.7" stroke-linejoin="round"></path>
        </g>
    </g>
</svg>