<?xml version="1.0" encoding="UTF-8"?>
<svg width="601px" height="598px" viewBox="0 0 601 598" version="1.1" xmlns="http://www.w3.org/2000/svg" xmlns:xlink="http://www.w3.org/1999/xlink">
    <title>Pabilsag</title>
    <g id="Page-1" stroke="none" stroke-width="1" fill="none" fill-rule="evenodd">
        <g id="Pabilsag">
            <path d="M304.093469,295.382752 C313.899257,298.132511 321.11682,302.24668 325.596598,307.062677 C300.586732,320.840265 275.9889,327.58331 269.1,321.124966 C265.905113,318.12976 264.071687,313.211807 263.742618,307.420881 C266.584353,306.353891 269.350359,305.443909 272.001409,304.636466 L273.278172,304.252563 L273.278172,304.252563 L273.895705,304.070298 L273.895705,304.070298 L275.758906,303.531821 L275.758906,303.531821 L277.2,303.124966 L277.2,303.124966 L278.6761,302.71241 L285.911855,300.698188 L289.010292,299.830406 L290.339894,299.45534 L290.339894,299.45534 L292.623292,298.806055 L292.623292,298.806055 L294.117284,298.376961 L294.117284,298.376961 C295.689662,297.923343 297.257909,297.464275 298.82047,296.99754 L301.351046,296.233013 L301.351046,296.233013 C302.267401,295.95287 303.18173,295.669575 304.093469,295.382752 Z" id="Path" stroke="#FFF1DF" stroke-width="2.7" fill-opacity="0" fill="#FF0000" stroke-linejoin="round"></path>
        </g>
    </g>
</svg>