<?xml version="1.0" encoding="UTF-8"?>
<svg width="601px" height="598px" viewBox="0 0 601 598" version="1.1" xmlns="http://www.w3.org/2000/svg" xmlns:xlink="http://www.w3.org/1999/xlink">
    <title>Pegasus</title>
    <g id="Page-1" stroke="none" stroke-width="1" fill="none" fill-rule="evenodd">
        <g id="Pegasus">
            <path d="M41.786953,153.083781 L41.3312348,155.136765 C41.1130982,156.105606 40.898208,156.992456 40.6355474,157.817501 L40.5,158.224966 C39.9060413,159.932597 41.0309439,161.192586 43.3493658,162.148776 L43.7584031,162.309745 C44.1088472,162.441451 44.4830362,162.567125 44.8794385,162.687185 L45.3656856,162.828591 L45.8726693,162.964769 C45.9588619,162.987039 46.0458941,163.009097 46.1337535,163.030948 L46.6707394,163.159587 L47.2269915,163.283402 L47.8019218,163.402552 L48.394942,163.517201 L49.0054641,163.627507 L49.6328999,163.733633 L50.2766613,163.83574 L50.9361601,163.933988 L51.6108083,164.028538 L52.6498988,164.163784 L53.7197671,164.291616 L54.818428,164.412578 L55.5658843,164.489671 L56.708122,164.600392 L57.8738592,164.705691 L59.8635841,164.870621 L61.4922176,164.994502 L63.566357,165.141388 L66.2154842,165.316769 L73.4789267,165.777104 L75.8355327,165.934691 L77.7237421,166.068846 L79.5908185,166.211001 L81.4303327,166.362915 L82.788013,166.484312 L83.6811715,166.569209 L84.563823,166.657535 L85.8663417,166.796933 L87.1406991,166.945282 L87.9732862,167.049521 L88.791348,167.158287 L89.5940809,167.271801 C89.7265477,167.291128 89.8583423,167.310662 89.9894479,167.330407 L90.7676806,167.451454 C90.8959636,167.472064 91.0235241,167.492895 91.1503455,167.513951 L91.9022698,167.643026 C92.0260676,167.665001 92.1490927,167.687211 92.2713284,167.70966 L92.9951361,167.847257 C93.1141473,167.870681 93.2323356,167.894352 93.3496843,167.918276 L94.0435672,168.064891 C94.2714138,168.114798 94.4957679,168.165753 94.7164957,168.217792 L95.367666,168.377199 C95.4743366,168.404321 95.5800671,168.431723 95.6848407,168.459411 L96.3018671,168.628988 C98.9247326,169.378953 100.878155,170.327645 101.867863,171.555546 L101.240742,172.269254 C87.9845475,187.418946 75.0167573,206.286564 67.4942264,228.75156 C23.3766298,232.34872 18.5840714,215.438452 18.0634486,202.382534 L18.0349401,201.527548 L18.0165799,200.685285 L18.006135,199.857296 L18,198.645471 L18,197.824966 C18,193.179616 20.5575439,186.509544 24.2792178,179.428176 L24.8927167,178.276496 C25.9314882,176.351869 27.0497929,174.40357 28.2201219,172.46345 L28.9283421,171.300614 L29.6477278,170.14127 C29.7684825,169.948422 29.8896474,169.755784 30.011195,169.563386 L30.7448529,168.412147 C30.8678212,168.220841 30.9911173,168.02984 31.1147135,167.839175 L31.8596727,166.699481 L32.6105155,165.569394 L33.3659216,164.450445 L34.1245705,163.34416 C34.3778472,162.97768 34.6314443,162.613565 34.8851417,162.252071 L35.6463149,161.175704 L36.4067696,160.11659 L37.1651853,159.076257 L37.9202417,158.056235 L38.6706182,157.058051 C38.7952176,156.893592 38.919567,156.730107 39.0436389,156.567627 L39.78452,155.605068 L40.5174202,154.668172 L41.241019,153.758465 L41.786953,153.083781 Z" id="Path" stroke="#FFF1DF" stroke-width="2.7" stroke-linejoin="round"></path>
        </g>
    </g>
</svg>