<?xml version="1.0" encoding="UTF-8"?>
<svg width="601px" height="598px" viewBox="0 0 601 598" version="1.1" xmlns="http://www.w3.org/2000/svg" xmlns:xlink="http://www.w3.org/1999/xlink">
    <title>Satyr</title>
    <g id="Page-1" stroke="none" stroke-width="1" fill="none" fill-rule="evenodd">
        <g id="Satyr">
           <path d="M456.482263,276.914687 C457.991929,291.59877 458.837569,306.843748 458.749668,322.450511 L457.365551,322.826528 L457.365551,322.826528 L455.996684,323.190028 C455.76984,323.249547 455.543653,323.308528 455.318134,323.366964 L453.973126,323.710969 C453.750323,323.767191 453.528211,323.822852 453.3068,323.877944 L451.986829,324.201596 L451.986829,324.201596 L450.684207,324.511201 L450.684207,324.511201 L449.399455,324.806377 L449.399455,324.806377 L448.133099,325.086742 L448.133099,325.086742 L446.885663,325.351913 L446.885663,325.351913 L445.657672,325.601508 C445.454656,325.641788 445.252472,325.681403 445.051131,325.720345 L443.853288,325.94586 C428.613024,328.734708 418.5,327.439597 418.5,318.424966 C418.5,309.947686 424.810925,301.360895 433.688798,293.418905 L434.616202,292.599651 C435.396413,291.918908 436.194742,291.24315 437.008789,290.57286 L437.993037,289.771168 C438.158284,289.638001 438.324122,289.50506 438.490531,289.372349 L439.495687,288.578879 C439.832921,288.315332 440.172287,288.052736 440.51363,287.791124 L441.543439,287.009267 C441.716011,286.87946 441.88904,286.749906 442.062505,286.620609 L443.108386,285.84795 L443.108386,285.84795 L444.16383,285.081653 L444.16383,285.081653 L445.227917,284.321906 C445.405934,284.195837 445.584273,284.070049 445.762914,283.944545 L446.838237,283.194969 L446.838237,283.194969 L447.9199,282.452405 L447.9199,282.452405 L449.006982,281.717039 L449.006982,281.717039 L450.098561,280.989057 L450.098561,280.989057 L451.193716,280.268644 L451.193716,280.268644 L452.291527,279.555987 L452.291527,279.555987 L453.391073,278.851269 L453.391073,278.851269 L454.491432,278.154678 L454.491432,278.154678 L455.591683,277.466399 L455.591683,277.466399 L456.482263,276.914687 Z" id="Path" stroke="#FFF1DF" stroke-width="2.7" stroke-linejoin="round"></path>
        </g>
    </g>
</svg>