<?xml version="1.0" encoding="UTF-8"?>
<svg width="601px" height="598px" viewBox="0 0 601 598" version="1.1" xmlns="http://www.w3.org/2000/svg" xmlns:xlink="http://www.w3.org/1999/xlink">
    <title>Sleipnir</title>
    <g id="Page-1" stroke="none" stroke-width="1" fill="none" fill-rule="evenodd">
        <g id="Sleipnir">
            <path d="M196.465699,89.1917689 L194.963712,90.1619306 C178.813037,100.80907 168.568121,113.806746 163.385885,125.008389 C153.828439,127.160403 145.479977,130.206805 140.4,134.824966 L139.443677,135.68725 L139.443677,135.68725 L138.424611,136.593907 L138.424611,136.593907 L137.345405,137.544878 L137.345405,137.544878 L130.681373,143.362594 L130.681373,143.362594 L128.325635,145.437303 L128.325635,145.437303 L126.858994,146.74058 L126.858994,146.74058 L125.355634,148.08762 L125.355634,148.08762 L123.818157,149.478363 L123.818157,149.478363 L122.249167,150.912748 L122.249167,150.912748 L120.651266,152.390714 L120.651266,152.390714 L119.571222,153.400206 C119.390283,153.570066 119.208889,153.74073 119.027056,153.9122 L118.443164,153.16336 C116.807663,151.088316 115.310817,149.416862 113.4,148.324966 C111.825,147.424966 107.55,146.299966 101.882812,145.245279 L100.496627,144.993655 C99.3203136,144.785345 98.0924976,144.580793 96.8236416,144.382361 L95.2819848,144.147332 C94.7619792,144.070069 94.2360768,143.993936 93.7049472,143.919085 L92.0965464,143.698527 C89.6624316,143.373911 87.1360254,143.07831 84.5783451,142.825501 L82.8692613,142.663452 C68.31405,141.342496 53.19,141.493966 48.6,145.624966 C48.1997751,145.985169 47.7746333,146.389865 47.3275723,146.8356 L46.7807698,147.389958 L46.7807698,147.389958 L46.2140759,147.982384 L46.2140759,147.982384 L45.6286417,148.611552 C45.5295716,148.719401 45.4297686,148.828726 45.3292567,148.939498 L44.7178705,149.621289 L44.7178705,149.621289 L44.0906217,150.336501 C43.9848224,150.458415 43.87841,150.581665 43.7714086,150.706226 L43.1225245,151.469083 L43.1225245,151.469083 L42.4606555,152.262044 L42.4606555,152.262044 L41.786953,153.083781 L41.786953,153.083781 L41.9912201,152.196554 L41.9912201,152.196554 L42.1424333,151.567495 L42.1424333,151.567495 L42.3054659,150.917875 L42.3054659,150.917875 L42.4821365,150.246975 C43.1878363,147.633486 44.234221,144.535088 46.0822461,140.769395 C50.7495174,135.41922 55.7873463,130.431535 61.2,125.824966 C102.930313,90.3093781 161.099522,80.2362066 196.465699,89.1917689 Z" id="Path" stroke="#FFF1DF" stroke-width="2.7" stroke-linejoin="round"></path>
        </g>
    </g>
</svg>