<?xml version="1.0" encoding="UTF-8"?>
<svg width="601px" height="598px" viewBox="0 0 601 598" version="1.1" xmlns="http://www.w3.org/2000/svg" xmlns:xlink="http://www.w3.org/1999/xlink">
    <title>Sphinx</title>
    <g id="Page-1" stroke="none" stroke-width="1" fill="none" fill-rule="evenodd">
        <g id="Sphinx">
            <path d="M380.821193,211.254567 C389.421209,212.998607 398.223692,215.042131 406.927917,217.242074 L409.995427,218.024786 C411.526653,218.419157 413.053716,218.817875 414.574966,219.220153 L417.609222,220.029226 C419.626239,220.571462 421.63096,221.119096 423.619468,221.670266 L426.589582,222.499439 C427.082411,222.637998 427.574104,222.776721 428.064601,222.915576 L430.992726,223.750082 C431.47819,223.889356 431.962335,224.028705 432.445099,224.1681 L435.324626,225.004794 L438.168082,225.841199 C438.638822,225.980498 439.107937,226.119727 439.575365,226.258856 L442.359205,227.092208 L445.099629,227.921777 L447.793698,228.746165 C448.238683,228.883054 448.681615,229.019668 449.122431,229.15598 C450.846932,237.619839 452.421538,246.415771 453.776069,255.485529 C451.721835,255.69406 449.576687,255.940197 447.356608,256.215357 L445.112145,256.499873 L442.82128,256.801831 C442.4358,256.853505 442.048534,256.905826 441.659557,256.958755 L439.30575,257.283298 L436.914421,257.620515 L433.264845,258.145929 L420.701507,259.989598 L416.859256,260.54559 L414.290073,260.911032 L410.433656,261.446598 L407.86613,261.792462 C407.011237,261.905994 406.15749,262.017666 405.305482,262.127157 L402.755264,262.448776 C396.819688,263.182481 389.500458,263.871046 391.787113,263.655685 L392.518426,263.112431 L393.23686,262.568931 L393.941807,262.025232 L394.63266,261.481377 L395.308809,260.937411 C395.420242,260.846743 395.531036,260.756073 395.64118,260.665401 L396.294134,260.121354 L396.930864,259.577308 L397.550762,259.03331 C399.078959,257.673409 400.443652,256.314366 401.602071,254.959338 L402.054335,254.417548 C404.847721,250.987665 406.280689,247.586247 405.657882,244.264611 C403.484806,232.674869 398.251004,233.619527 389.25302,238.594299 L388.384666,239.08 C388.238036,239.16289 388.090452,239.246728 387.941911,239.331479 L387.039161,239.850673 L385.641684,240.666994 L380.602215,243.647007 L379.52293,244.27857 L378.419534,244.918178 L377.291891,245.564198 L376.139866,246.214997 C375.945823,246.323771 375.750758,246.432676 375.554668,246.541679 L374.365817,247.196586 L373.152247,247.852191 C372.947917,247.961426 372.742552,248.070622 372.536149,248.179745 L371.285246,248.833337 C370.86411,249.050727 370.438797,249.267554 370.009286,249.483545 L369.361867,249.80687 L368.975128,250.502411 C374.59257,240.489251 378.625805,228.280893 380.584389,213.191983 L380.821193,211.254567 Z" id="Path" stroke="#FFF1DF" stroke-width="2.7" stroke-linejoin="round"></path>
        </g>
    </g>
</svg>