<?xml version="1.0" encoding="UTF-8"?>
<svg width="601px" height="598px" viewBox="0 0 601 598" version="1.1" xmlns="http://www.w3.org/2000/svg" xmlns:xlink="http://www.w3.org/1999/xlink">
    <title>Sun Crow</title>
    <g id="Page-1" stroke="none" stroke-width="1" fill="none" fill-rule="evenodd">
        <g id="Sun-Crow">
            <path d="M118.204353,154.692097 L119.026879,153.912551 L120.465956,155.783015 C121.074133,156.569398 121.721595,157.392796 122.428651,158.246747 C116.800889,172.542427 127.667354,191.051655 147.189439,198.73622 C146.909208,199.97483 146.624421,201.214391 146.334928,202.453626 L145.749622,204.931285 C142.199592,219.790095 137.957267,234.479544 132.760632,246.794997 L132.468256,246.299421 C132.418118,246.215806 132.367261,246.131697 132.315663,246.047115 L131.997012,245.53412 L131.997012,245.53412 L131.659536,245.01082 C131.428046,244.65875 131.18331,244.300506 130.923933,243.937481 L130.523715,243.389533 C124.556292,235.397352 111.333753,225.473302 76.5171788,227.954768 C78.1202056,223.172033 80.1253346,218.385287 82.3076038,213.735426 L82.9673737,212.344716 C83.0781461,212.113662 83.1893051,211.882986 83.3008226,211.652704 L83.9740044,210.275898 L83.9740044,210.275898 L84.6544401,208.909419 L84.6544401,208.909419 L85.3407801,207.554112 L85.3407801,207.554112 L86.0316745,206.210822 L86.0316745,206.210822 L86.7257736,204.880395 L86.7257736,204.880395 L87.4217276,203.563675 L87.4217276,203.563675 L88.1181867,202.26151 C88.2342304,202.045742 88.3502388,201.830616 88.4661839,201.616148 L89.1608699,200.337398 L89.1608699,200.337398 L90.1970971,198.450787 L90.1970971,198.450787 L91.2223129,196.60453 L91.2223129,196.60453 L92.2319618,194.801479 L92.2319618,194.801479 L96.023779,188.078408 L96.023779,188.078408 L96.8872612,186.534189 L96.8872612,186.534189 L97.7078437,185.050296 L97.7078437,185.050296 L98.2288159,184.095957 L98.2288159,184.095957 L98.7273471,183.170543 L98.7273471,183.170543 L99.2020875,182.274899 L99.2020875,182.274899 L99.6516874,181.40987 L99.6516874,181.40987 L100.074797,180.576303 L100.074797,180.576303 L100.470067,179.775042 L100.470067,179.775042 L100.836146,179.006933 L100.836146,179.006933 L101.171686,178.272821 C102.077844,176.241798 102.6,174.630337 102.6,173.524966 C102.6,172.797835 102.345542,172.143977 101.869162,171.554484 C107.402742,165.282835 112.972752,159.658659 118.204353,154.692097 Z" id="Path" stroke="#FFF1DF" stroke-width="2.7" stroke-linejoin="round"></path>
        </g>
    </g>
</svg>