<?xml version="1.0" encoding="UTF-8"?>
<svg width="601px" height="598px" viewBox="0 0 601 598" version="1.1" xmlns="http://www.w3.org/2000/svg" xmlns:xlink="http://www.w3.org/1999/xlink">
    <title>Uchchaihshravas</title>
    <g id="Page-1" stroke="none" stroke-width="1" fill="none" fill-rule="evenodd">
        <g id="Uchchaihshravas">
            <path d="M113.4,148.324966 C115.086226,149.288524 116.450076,150.703408 117.871206,152.448819 L118.443612,153.164325 L118.443612,153.164325 L119.027529,153.91337 L119.027529,153.91337 C113.55892,159.06867 107.693447,164.953285 101.867863,171.555546 C100.865466,170.311903 98.8744865,169.354674 96.2006582,168.600241 L95.595358,168.435894 L95.595358,168.435894 L94.9683229,168.278019 C94.8620472,168.252235 94.7548969,168.226711 94.6468876,168.201445 L93.9886479,168.052897 L93.9886479,168.052897 L93.310537,167.910311 L93.310537,167.910311 L92.6133007,167.773484 L92.6133007,167.773484 L91.8976843,167.642212 L91.8976843,167.642212 L91.1644337,167.516291 L91.1644337,167.516291 L90.4142943,167.395517 L90.4142943,167.395517 L89.2590496,167.223561 L89.2590496,167.223561 L88.4699501,167.114763 L88.4699501,167.114763 L87.6665714,167.010398 L87.6665714,167.010398 L86.4363607,166.861717 L86.4363607,166.861717 L85.1782156,166.721864 L85.1782156,166.721864 L84.3251756,166.633193 L84.3251756,166.633193 L82.5881873,166.465889 L82.5881873,166.465889 L80.8149582,166.31061 L80.8149582,166.31061 L79.4648415,166.201059 L79.4648415,166.201059 L78.1002108,166.096666 L78.1002108,166.096666 L76.262475,165.96431 L76.262475,165.96431 L73.4789267,165.777104 L73.4789267,165.777104 L64.7701895,165.222423 L64.7701895,165.222423 L62.3925226,165.059558 L62.3925226,165.059558 L60.0654897,164.886466 L60.0654897,164.886466 L58.2493819,164.738147 L58.2493819,164.738147 L56.4812147,164.579029 L56.4812147,164.579029 L55.1907036,164.451466 L55.1907036,164.451466 L54.3489403,164.362065 L54.3489403,164.362065 L53.1163191,164.220833 L53.1163191,164.220833 L52.315846,164.121581 L52.315846,164.121581 L51.5333994,164.017975 L51.5333994,164.017975 L50.7698422,163.909779 L50.7698422,163.909779 L50.0260375,163.796756 L50.0260375,163.796756 L49.3028484,163.67867 C49.1840828,163.658554 49.0662121,163.638217 48.9492543,163.617654 L48.2586067,163.491531 L48.2586067,163.491531 L47.5907322,163.359754 C47.4813655,163.337307 47.3729837,163.314615 47.2656046,163.291672 L46.633508,163.150971 L46.633508,163.150971 L46.0263422,163.004027 C42.0635904,162.003054 39.8204243,160.570033 40.4475647,158.389883 L40.5,158.224966 C40.7800013,157.419963 41.0037292,156.556518 41.2222008,155.614447 L41.4408099,154.645419 L41.4408099,154.645419 L41.786953,153.083781 L41.786953,153.083781 L42.4606555,152.262044 L42.4606555,152.262044 L43.1225245,151.469083 L43.1225245,151.469083 L43.7714086,150.706226 C43.87841,150.581665 43.9848224,150.458415 44.0906217,150.336501 L44.7178705,149.621289 L44.7178705,149.621289 L45.3292567,148.939498 C45.4297686,148.828726 45.5295716,148.719401 45.6286417,148.611552 L46.2140759,147.982384 L46.2140759,147.982384 L46.7807698,147.389958 L46.7807698,147.389958 L47.3275723,146.8356 C47.7746333,146.389865 48.1997751,145.985169 48.6,145.624966 C53.19,141.493966 68.31405,141.342496 82.8692613,142.663452 L84.5783451,142.825501 C87.1360254,143.07831 89.6624316,143.373911 92.0965464,143.698527 L93.7049472,143.919085 C94.2360768,143.993936 94.7619792,144.070069 95.2819848,144.147332 L96.8236416,144.382361 C98.0924976,144.580793 99.3203136,144.785345 100.496627,144.993655 L101.882812,145.245279 C107.55,146.299966 111.825,147.424966 113.4,148.324966 Z" id="Path" stroke="#FFF1DF" stroke-width="2.7" stroke-linejoin="round"></path>
        </g>
    </g>
</svg>