<?xml version="1.0" encoding="UTF-8"?>
<svg width="601px" height="598px" viewBox="0 0 601 598" version="1.1" xmlns="http://www.w3.org/2000/svg" xmlns:xlink="http://www.w3.org/1999/xlink">
    <title>Unicorn</title>
    <g id="Page-1" stroke="none" stroke-width="1" fill="none" fill-rule="evenodd">
        <g id="Unicorn">
            <path d="M189,96.1249662 C195.449175,93.2228374 203.528832,92.4727661 212.137596,95.2704732 C219.68385,99.5618446 224.867,105.295875 226.8,112.324966 C227.555162,115.07101 223.247467,116.678878 216.136555,117.892135 L215.101885,118.062853 L215.101885,118.062853 L214.03054,118.228684 L214.03054,118.228684 L212.923984,118.39011 L212.923984,118.39011 L211.783681,118.547612 L211.783681,118.547612 L210.611095,118.701672 L210.611095,118.701672 L209.407689,118.852772 L209.407689,118.852772 L207.547998,119.074926 L207.547998,119.074926 L206.273949,119.220733 L206.273949,119.220733 L203.650231,119.509008 L203.650231,119.509008 L198.141298,120.085683 L198.141298,120.085683 L193.826905,120.533476 L193.826905,120.533476 L190.885606,120.846509 L190.885606,120.846509 L187.90594,121.175643 L187.90594,121.175643 L186.40538,121.347452 L186.40538,121.347452 L184.89962,121.524732 L184.89962,121.524732 L183.390125,121.707963 L183.390125,121.707963 L181.878358,121.897628 C181.626288,121.929802 181.374186,121.962264 181.12208,121.995024 L179.60965,122.195243 C179.357653,122.229236 179.105715,122.263547 178.853864,122.298187 L177.344066,122.510043 C177.092691,122.546036 176.841465,122.582378 176.590419,122.619077 L176.400719,121.953755 C176.339999,121.732584 176.281804,121.512025 176.226162,121.292096 L176.06692,120.634218 C176.041665,120.524893 176.017056,120.41573 175.993095,120.306733 L175.857145,119.654744 C173.914171,109.796826 177.402526,101.34383 189,96.1249662 Z" id="Path" stroke="#FFF1DF" stroke-width="2.7" stroke-linejoin="round"></path>
        </g>
    </g>
</svg>