<?xml version="1.0" encoding="UTF-8"?>
<svg width="601px" height="598px" viewBox="0 0 601 598" version="1.1" xmlns="http://www.w3.org/2000/svg" xmlns:xlink="http://www.w3.org/1999/xlink">
    <title>Vampire</title>
    <g id="Page-1" stroke="none" stroke-width="1" fill="none" fill-rule="evenodd">
        <g id="Vampire">
            <path d="M405,380.524966 C412.279495,371.565588 427.5721,370.183825 445.594175,373.670117 L446.855891,373.921211 C447.066893,373.964365 447.278247,374.008169 447.489946,374.052618 L448.7642,374.327024 C449.403326,374.468065 450.045399,374.614839 450.690195,374.767229 L451.983352,375.079466 C452.199462,375.132742 452.415857,375.186634 452.63253,375.241137 L453.935833,375.575459 C454.153583,375.632391 454.371594,375.689925 454.589859,375.748058 C452.156953,391.491133 448.546558,407.365807 443.517008,423.189086 C441.010134,421.796039 438.441193,420.474373 435.865494,419.201799 L434.319706,418.443968 L434.319706,418.443968 L432.774951,417.696849 L432.774951,417.696849 L430.465563,416.593917 L430.465563,416.593917 L424.415901,413.73138 L424.415901,413.73138 L422.213596,412.677112 L422.213596,412.677112 L420.77268,411.977183 L420.77268,411.977183 L419.356689,411.278339 C403.460081,403.360208 392.8775,395.444967 405,380.524966 Z" id="Path" stroke="#FFF1DF" stroke-width="2.7" stroke-linejoin="round"></path>
        </g>
    </g>
</svg>