<?xml version="1.0" encoding="UTF-8"?>
<svg width="601px" height="598px" viewBox="0 0 601 598" version="1.1" xmlns="http://www.w3.org/2000/svg" xmlns:xlink="http://www.w3.org/1999/xlink">
    <title>Werewolf</title>
    <g id="Page-1" stroke="none" stroke-width="1" fill="none" fill-rule="evenodd">
        <g id="Werewolf">
            <path d="M273.6,390.424966 C279.390434,397.663008 242.234615,406.453325 199.029128,403.063728 C199.767384,398.582343 200.579642,394.3234 201.433914,390.365568 C204.658526,390.215358 208.014387,389.935038 211.5,389.524966 C219.935944,388.532502 231.692932,384.389633 241.800309,378.301817 L244.558941,379.008595 L244.558941,379.008595 L247.236811,379.705568 L247.236811,379.705568 L249.82787,380.394855 L249.82787,380.394855 L251.834148,380.942175 L251.834148,380.942175 L252.814033,381.214839 L252.814033,381.214839 L254.253703,381.62297 L254.253703,381.62297 L255.656024,382.030471 L255.656024,382.030471 L256.569509,382.302014 L256.569509,382.302014 L257.465427,382.573616 L257.465427,382.573616 L258.34339,382.845414 L258.34339,382.845414 L259.625823,383.253771 L259.625823,383.253771 L260.457205,383.526649 L260.457205,383.526649 L261.269277,383.800197 C261.402992,383.845851 261.535886,383.891539 261.667951,383.937264 L262.450333,384.21207 L262.450333,384.21207 L263.212437,384.487885 L263.212437,384.487885 L263.953877,384.764845 C264.075706,384.811108 264.196659,384.857424 264.316726,384.903796 L265.026442,385.182727 L265.026442,385.182727 L265.714525,385.463141 C265.940238,385.556875 266.162281,385.650879 266.380589,385.745175 L267.024246,386.028963 L267.024246,386.028963 L267.645108,386.314643 C267.746664,386.362421 267.847254,386.410284 267.94687,386.458234 L268.532816,386.747003 C270.829331,387.906451 272.555559,389.119415 273.6,390.424966 Z" id="Path" stroke="#FFF1DF" stroke-width="2.7" stroke-linejoin="round"></path>
        </g>
    </g>
</svg>