<?xml version="1.0" encoding="UTF-8"?>
<svg width="601px" height="598px" viewBox="0 0 601 598" version="1.1" xmlns="http://www.w3.org/2000/svg" xmlns:xlink="http://www.w3.org/1999/xlink">
    <title>Wyvern</title>
    <g id="Page-1" stroke="none" stroke-width="1" fill="none" fill-rule="evenodd">
        <g id="Wyvern">
            <path d="M494.988108,470.142443 L495.480253,470.464184 L495.480253,470.464184 L496.455077,471.107187 L496.455077,471.107187 L497.416965,471.749539 C497.576181,471.856543 497.734842,471.963519 497.89294,472.070466 L498.834714,472.711813 C498.99053,472.818647 499.145768,472.925452 499.300419,473.032228 L500.221226,473.672535 L500.221226,473.672535 L501.127582,474.312131 L501.127582,474.312131 L502.019108,474.951 C502.166438,475.057416 502.313135,475.163802 502.45919,475.270157 L503.327759,475.907907 C503.471217,476.014136 503.614016,476.120332 503.756151,476.226497 L504.600911,476.863095 L504.600911,476.863095 L505.429324,477.498907 L505.429324,477.498907 L506.241013,478.133916 L506.241013,478.133916 L507.035597,478.768108 C507.166581,478.873738 507.296837,478.979333 507.426356,479.084893 L508.194573,479.717832 C508.321116,479.823251 508.446906,479.928634 508.571936,480.033981 L509.312933,480.665632 C509.434892,480.770834 509.556074,480.876 509.676473,480.981129 L510.389398,481.611458 C510.858327,482.031379 511.314464,482.450701 511.757303,482.869402 L512.411525,483.496986 C518.638043,489.55909 522.015601,495.488727 521.003772,501.224684 C511.411033,507.55846 501.376628,510.74093 494.1,509.224966 C487.105517,507.767782 483.602823,502.724437 481.361065,495.653472 L481.133565,494.914823 L481.133565,494.914823 L480.914513,494.162093 L480.914513,494.162093 L480.703359,493.395663 L480.703359,493.395663 L480.499554,492.615918 L480.499554,492.615918 C485.458833,485.91186 490.013369,478.873859 494.182912,471.566424 L494.988108,470.142443 Z" id="Path" stroke="#FFF1DF" stroke-width="2.7" stroke-linejoin="round"></path>
        </g>
    </g>
</svg>